PathFileType	4	(X/Y/Z)	./resultDataOpenSim/trcMotMarkerGrf/sub06/qtm-14-03.trc
DataRate	CameraRate	NumFrames	NumMarkers	Units	OrigDataRate	OrigDataStartFrame	OrigNumFrames
250.000000	250.000000	8	24	m	250.000000	272	542
Frame#	Time	L.Toe.Tip			R.Toe.Tip			L.Ankle.Lat			R.Ankle.Lat			L.Ankle.Med			R.Ankle.Med			L.Heel			R.Heel			L.Knee.Lat			R.Knee.Lat			L.Knee.Med			R.Knee.Med			L.Thigh.Upper			R.Thigh.Upper			L.ASIS			R.ASIS			V.Sacral			L.Acromium			R.Acromium			C7			L.Elbow			R.Elbow			L.Wrist.Lat			R.Wrist.Lat
		X1	Y1	Z1	X2	Y2	Z2	X3	Y3	Z3	X4	Y4	Z4	X5	Y5	Z5	X6	Y6	Z6	X7	Y7	Z7	X8	Y8	Z8	X9	Y9	Z9	X10	Y10	Z10	X11	Y11	Z11	X12	Y12	Z12	X13	Y13	Z13	X14	Y14	Z14	X15	Y15	Z15	X16	Y16	Z16	X17	Y17	Z17	X18	Y18	Z18	X19	Y19	Z19	X20	Y20	Z20	X21	Y21	Z21	X22	Y22	Z22	X23	Y23	Z23	X24	Y24	Z24

272	1.084	0.11760663	-0.040799952	-0.019540417	0.86986115	0.12371539	0.096483861	0.020069033	0.033639071	-0.066902916	0.73207876	0.11427896	0.12507478	0.021551615	0.054645943	0.017834488	0.74286158	0.14326274	0.03843894	-0.05888048	0.037417579	-0.026644003	0.6881935	0.078216056	0.064244103	0.19327463	0.36849121	-0.085227589	0.62708176	0.48624004	0.14403345	0.18239208	0.37761493	0.037528263	0.60766354	0.46458531	0.02017077	0.27445157	0.74092372	-0.15051951	0.37883837	0.75652088	0.18929825	0.36589887	0.78796929	-0.13119009	0.44110331	0.80573459	0.10567591	0.23271624	0.86839115	0.047560884	0.3874671	1.2751365	-0.18014305	0.39913676	1.2555781	0.18229385	0.31764494	1.311096	0.0026102388	0.47627578	0.95685492	-0.23516243	0.21889263	1.0024843	0.24386992	0.72433587	0.9719502	-0.18527732	0.23255135	0.77926385	0.32749615
273	1.088	0.11770515	-0.040780269	-0.019530527	0.87435788	0.12062959	0.095342671	0.021537545	0.034820479	-0.067319304	0.73582917	0.11192719	0.12425127	0.023279855	0.055815302	0.017392159	0.74730421	0.14025012	0.037529352	-0.05733885	0.039662254	-0.027009918	0.69258938	0.075388551	0.063270156	0.19845085	0.36789986	-0.085397976	0.63298696	0.48381281	0.14313934	0.1879567	0.37698965	0.037436759	0.61339182	0.4625688	0.019296011	0.28079597	0.74006305	-0.15031986	0.38685236	0.7558803	0.18923475	0.37259869	0.78693731	-0.13106502	0.4485965	0.8046262	0.10531343	0.23991381	0.86750147	0.047951003	0.39361732	1.2743798	-0.17961521	0.40611095	1.2542807	0.18288845	0.32432991	1.3102437	0.0034024906	0.48314186	0.95633202	-0.23469423	0.22577083	1.0014011	0.2443301	0.73088448	0.97213559	-0.18355014	0.23866883	0.77816502	0.32800112
274	1.092	0.11781395	-0.040737149	-0.019524718	0.87853851	0.11731415	0.094103719	0.023102983	0.03602781	-0.067737194	0.73911895	0.1095236	0.12346287	0.025093012	0.057020529	0.016918375	0.75142451	0.13713893	0.036582915	-0.055705151	0.041978646	-0.027402116	0.69664179	0.072419343	0.062303704	0.20373784	0.36725617	-0.085641605	0.63877676	0.48133809	0.14219314	0.19370806	0.37626926	0.037266867	0.61893343	0.46045623	0.018465204	0.28720645	0.7391853	-0.15010717	0.39495387	0.75528058	0.18916868	0.37932433	0.7858711	-0.13095785	0.45613783	0.80351367	0.10492034	0.24714916	0.86668192	0.048322375	0.3998613	1.2736409	-0.17903204	0.41309251	1.2530108	0.18350453	0.33106091	1.3093749	0.0041982994	0.48995585	0.9557985	-0.23427382	0.23277705	1.0003085	0.24477077	0.73736744	0.97220977	-0.18184564	0.24500746	0.77706586	0.32851585
275	1.096	0.11793062	-0.040680569	-0.01951905	0.88240776	0.1137951	0.092783397	0.024774556	0.037256852	-0.068147154	0.74234164	0.10681121	0.1225867	0.026992513	0.058260921	0.016414265	0.75525868	0.13392959	0.035580747	-0.053975163	0.044364677	-0.027828067	0.70035919	0.069302618	0.061348464	0.20914753	0.36656434	-0.085976814	0.64454601	0.47882809	0.14120112	0.19964654	0.37546847	0.036988447	0.62430173	0.4582436	0.017675643	0.29367644	0.73828488	-0.14988524	0.40318387	0.75471198	0.18914951	0.38607521	0.78476575	-0.13085932	0.4637306	0.80241159	0.10450451	0.25432813	0.86587953	0.048859632	0.40620608	1.272924	-0.17839465	0.42008631	1.2517723	0.18414052	0.33783504	1.308492	0.0050077659	0.49671417	0.95527528	-0.23390155	0.23983639	0.9992112	0.24519572	0.74378823	0.97216332	-0.18016725	0.25156042	0.7759704	0.32904213
276	1.1	0.11805315	-0.040621462	-0.019507862	0.88597937	0.11009306	0.091405296	0.02655341	0.038505862	-0.06856614	0.74564294	0.10368769	0.12157899	0.028986705	0.059526935	0.015875304	0.7588338	0.13057564	0.03453154	-0.052129701	0.046824092	-0.028281033	0.70375874	0.066028021	0.060401302	0.21469031	0.36582453	-0.086410812	0.65036713	0.47629521	0.14022034	0.20575805	0.3745856	0.036609246	0.62951839	0.45592334	0.016914377	0.30018522	0.73735506	-0.14966764	0.41150048	0.75414999	0.18915523	0.39286254	0.78361902	-0.13076958	0.47137922	0.8013315	0.10407229	0.26149975	0.86505835	0.049577832	0.41264496	1.2722299	-0.17770794	0.42709345	1.2505688	0.18479345	0.3446524	1.3075925	0.005833661	0.50340073	0.95474957	-0.23354384	0.24690334	0.99811622	0.2456039	0.75014833	0.97199152	-0.17851755	0.25821465	0.77487137	0.32957741
277	1.104	0.11817974	-0.040569235	-0.019491317	0.88927019	0.10622137	0.089992685	0.028421686	0.039776577	-0.069024445	0.74887921	0.10024172	0.12048757	0.031098169	0.060815125	0.015300359	0.76216042	0.12704758	0.033456625	-0.050138603	0.04935816	-0.02874777	0.7068633	0.062583976	0.059450537	0.22036841	0.36503815	-0.086945351	0.65622195	0.4737326	0.13926897	0.212039	0.37361514	0.03614389	0.63459927	0.45347886	0.016156697	0.3067203	0.73639363	-0.14946219	0.41981625	0.75356567	0.18911586	0.39969276	0.78243613	-0.13068421	0.47908543	0.80027792	0.10362612	0.26882314	0.86420154	0.050364926	0.4191673	1.2715547	-0.17697402	0.43411308	1.2494014	0.18546026	0.35150713	1.3066716	0.0066755267	0.50999364	0.95417743	-0.23315524	0.2539939	0.99702822	0.24599132	0.75644286	0.97169533	-0.1768949	0.26484403	0.77375601	0.33011705
278	1.108	0.11830571	-0.040533862	-0.019480058	0.89229762	0.10219055	0.088567592	0.030355111	0.041074192	-0.069535783	0.75188082	0.096587742	0.11937207	0.033356702	0.062125827	0.014688747	0.76524452	0.12334796	0.032374991	-0.04798286	0.051958199	-0.029224721	0.70970323	0.05896068	0.058483672	0.22616856	0.3642118	-0.087593537	0.66205149	0.47111668	0.13831807	0.2184986	0.37255361	0.035601439	0.63953681	0.45088919	0.015367413	0.31328396	0.73540813	-0.14926506	0.42809207	0.75294497	0.18899426	0.40651877	0.78123416	-0.13057926	0.48684735	0.79924719	0.10316703	0.27638302	0.86331493	0.051148971	0.42576921	1.2708923	-0.17618697	0.44114694	1.2482697	0.18613975	0.35838761	1.3057279	0.0075352574	0.51648974	0.95353546	-0.23272768	0.26113242	0.99594392	0.24635843	0.76266781	0.97127968	-0.17529504	0.27147357	0.77262271	0.33066282
279	1.112	0.11842383	-0.040523393	-0.019493182	0.89508076	0.098012413	0.08714991	0.032358255	0.042399647	-0.070097891	0.75460838	0.092759162	0.11825778	0.035778974	0.063450413	0.01403411	0.76809895	0.11949009	0.031303074	-0.04566615	0.054617542	-0.02971464	0.71232061	0.055140612	0.057494387	0.23207695	0.36335224	-0.088371359	0.66781545	0.4684188	0.13734644	0.22514808	0.3714012	0.034983155	0.6443075	0.44813549	0.014511294	0.31988086	0.73440916	-0.14906359	0.43634907	0.75228576	0.18880807	0.41320691	0.78003128	-0.13042172	0.49466515	0.79823496	0.10270103	0.2841042	0.86242597	0.051941752	0.43245221	1.27024	-0.17534358	0.44819825	1.2471738	0.1868335	0.36528645	1.3047626	0.0084147866	0.52290382	0.95284117	-0.23228793	0.26832574	0.99485708	0.24670946	0.76882789	0.97074899	-0.17371652	0.27825957	0.77148656	0.33122523
